<svg xmlns:xlink="http://www.w3.org/1999/xlink" xmlns="http://www.w3.org/2000/svg" width="88" height="88" viewBox="0 0 88 88" fill="none">
<path d="M0 22C0 9.84974 9.84974 0 22 0H66C78.1503 0 88 9.84974 88 22V66C88 78.1503 78.1503 88 66 88H22C9.84974 88 0 78.1503 0 66V22Z" fill="#F65A54"/>
<path d="M67.2948 57.1609C67.3023 57.5683 67.2821 57.9759 67.2346 58.3806C66.7056 62.848 62.8275 66.6934 58.3567 67.1844C53.8859 67.6754 49.2738 64.7621 47.7835 60.517C46.972 58.1997 47.0358 55.6758 46.5172 53.281C45.2716 47.5198 40.3976 42.7337 34.6295 41.5122C32.233 41.0057 29.7125 41.0591 27.4055 40.2338C25.773 39.6286 24.3238 38.6132 23.1974 37.2855C22.071 35.9579 21.3053 34.3626 20.9741 32.6533C19.8233 26.3373 25.2089 20.4486 31.5594 20.7742C32.1884 20.8056 32.8128 20.8991 33.4235 21.0533C34.9983 21.4716 36.4481 22.2657 37.6484 23.3676C38.8487 24.4695 39.7638 25.8463 40.3149 27.3796C41.104 29.6383 41.0489 32.0968 41.5312 34.4433C42.7217 40.239 47.5096 45.1508 53.2863 46.4258C55.7276 46.965 58.3015 46.9064 60.6532 47.7524C64.5055 49.1306 67.2294 53.0949 67.2948 57.1609Z" fill="white"/>
<path d="M67.2965 30.8494C67.2965 32.8446 66.7049 34.7949 65.5964 36.4538C64.4879 38.1127 62.9124 39.4056 61.069 40.1691C59.2257 40.9325 57.1974 41.1322 55.2406 40.7428C53.2838 40.3535 51.4864 39.3926 50.0757 37.9816C48.6651 36.5707 47.7045 34.7732 47.3154 32.8163C46.9264 30.8595 47.1264 28.8312 47.8902 26.988C48.6539 25.1448 49.9471 23.5695 51.6062 22.4613C53.2653 21.3531 55.2157 20.7618 57.2109 20.7621C58.5355 20.7621 59.8471 21.0231 61.0709 21.53C62.2946 22.037 63.4066 22.78 64.3431 23.7167C65.2797 24.6535 66.0225 25.7655 66.5293 26.9893C67.036 28.2132 67.2967 29.5248 67.2965 30.8494Z" fill="white"/>
<path d="M40.9937 57.1505C40.9937 59.1456 40.4021 61.0959 39.2937 62.7547C38.1853 64.4136 36.6099 65.7065 34.7667 66.47C32.9234 67.2335 30.8952 67.4332 28.9385 67.044C26.9817 66.6548 25.1843 65.6941 23.7736 64.2833C22.3629 62.8726 21.4021 61.0752 21.0129 59.1185C20.6237 57.1617 20.8235 55.1335 21.5869 53.2903C22.3504 51.4471 23.6433 49.8717 25.3022 48.7633C26.9611 47.6548 28.9113 47.0632 30.9064 47.0632C33.5817 47.0632 36.1475 48.126 38.0392 50.0177C39.931 51.9095 40.9937 54.4752 40.9937 57.1505Z" fill="white"/>
</svg>